<?xml version="1.0" encoding="UTF-8"?>
<!-- Generator: visioncortex VTracer 0.6.3 -->
<svg version="1.1" xmlns="http://www.w3.org/2000/svg" width="1280" height="435">
<path d="M0 0 C0.79 0 1.57 0 2.39 0.01 C24.18 0.09 46.1 2.65 66.28 11.43 C68.33 12.29 70.37 12.93 72.5 13.56 C79.81 15.94 86.57 19.78 93.38 23.31 C94.37 23.82 95.37 24.33 96.39 24.85 C126.73 40.75 153.05 66.93 170.38 96.31 C170.81 97.05 171.24 97.79 171.69 98.54 C194.85 138.54 201.71 187.16 190.19 232 C181.61 263.22 166.49 289.76 144.38 313.31 C143.88 313.84 143.39 314.36 142.88 314.91 C111.03 348.68 64.03 372.11 17.12 373.49 C15.59 373.52 14.06 373.54 12.54 373.55 C11.71 373.56 10.88 373.57 10.03 373.58 C7.35 373.61 4.68 373.62 2 373.62 C0.63 373.63 0.63 373.63 -0.77 373.63 C-16.06 373.64 -30.64 372.59 -45.62 369.31 C-46.36 369.16 -47.09 369 -47.84 368.84 C-71.82 363.61 -94.82 352.67 -114.62 338.31 C-115.17 337.92 -115.72 337.53 -116.28 337.13 C-146.6 315.27 -173.76 283.08 -184.82 246.86 C-185.52 244.64 -186.33 242.61 -187.31 240.5 C-188.73 237.06 -189.15 233.98 -189.62 230.31 C-189.93 229.57 -190.24 228.83 -190.55 228.07 C-199.04 206.27 -197.25 172.7 -191.62 150.31 C-191.42 149.47 -191.21 148.63 -190.99 147.76 C-184.53 122.38 -173.91 97.97 -157.62 77.31 C-156.89 76.37 -156.15 75.42 -155.39 74.45 C-147.62 64.72 -139.36 55.11 -129.62 47.31 C-128.67 46.54 -127.72 45.78 -126.73 44.98 C-90.51 16.24 -46.33 -0.22 0 0 Z M-17.62 1.31 C-17.62 1.64 -17.62 1.97 -17.62 2.31 C-15.97 2.31 -14.32 2.31 -12.62 2.31 C-12.62 1.98 -12.62 1.65 -12.62 1.31 C-14.28 1.31 -15.93 1.31 -17.62 1.31 Z M14.38 1.31 C18.38 2.31 18.38 2.31 18.38 2.31 Z M-193.62 169.31 C-192.62 171.31 -192.62 171.31 -192.62 171.31 Z M-193.62 204.31 C-192.62 206.31 -192.62 206.31 -192.62 206.31 Z M187.38 231.31 C188.38 233.31 188.38 233.31 188.38 233.31 Z M126.38 325.31 C127.04 325.97 127.69 326.63 128.38 327.31 C128.38 326.65 128.38 325.99 128.38 325.31 C127.71 325.31 127.06 325.31 126.38 325.31 Z M73.38 357.31 C74.04 357.97 74.69 358.63 75.38 359.31 C75.38 358.65 75.38 357.99 75.38 357.31 C74.71 357.31 74.06 357.31 73.38 357.31 Z " fill="#FAFCFC" transform="translate(241.625,54.6875)"/>
<path d="M0 0 C1.18 0 1.18 0 2.39 0.01 C24.18 0.09 46.1 2.65 66.28 11.43 C68.33 12.29 70.37 12.93 72.5 13.56 C79.81 15.94 86.57 19.78 93.38 23.31 C94.37 23.82 95.37 24.33 96.39 24.85 C126.73 40.75 153.05 66.93 170.38 96.31 C170.81 97.05 171.24 97.79 171.69 98.54 C194.85 138.54 201.71 187.16 190.19 232 C180.51 267.21 162.45 295.11 136.94 320.94 C136.32 321.57 135.71 322.19 135.07 322.84 C134.49 323.42 133.91 324 133.32 324.6 C132.54 325.39 132.54 325.39 131.74 326.19 C130.38 327.31 130.38 327.31 128.38 327.31 C128.38 326.65 128.38 325.99 128.38 325.31 C127.79 325.05 127.21 324.79 126.6 324.53 C124.22 323.23 122.62 321.82 120.7 319.91 C120.04 319.24 119.38 318.58 118.69 317.9 C117.67 316.87 117.67 316.87 116.62 315.81 C115.58 314.78 115.58 314.78 114.51 313.72 C113.85 313.06 113.19 312.4 112.52 311.72 C111.91 311.11 111.31 310.51 110.69 309.88 C109.38 308.31 109.38 308.31 109.38 306.31 C108.83 306.1 108.29 305.88 107.74 305.66 C104.55 303.84 102.16 301.38 99.6 298.79 C99.03 298.23 98.46 297.67 97.88 297.09 C96.01 295.23 94.16 293.37 92.3 291.5 C91 290.21 89.71 288.91 88.41 287.62 C85.7 284.91 83 282.2 80.29 279.49 C76.82 276.01 73.34 272.53 69.85 269.06 C67.18 266.39 64.51 263.72 61.85 261.05 C60.56 259.77 59.28 258.48 57.99 257.2 C56.2 255.42 54.42 253.63 52.64 251.83 C52.1 251.3 51.56 250.77 51.01 250.22 C47.38 246.54 47.38 246.54 47.38 244.31 C46.81 244.07 46.24 243.82 45.65 243.57 C42.97 242.09 41.14 240.35 38.96 238.2 C38.09 237.35 37.23 236.51 36.34 235.63 C35.42 234.71 34.49 233.8 33.54 232.85 C32.58 231.9 31.62 230.95 30.66 230 C28.65 228 26.65 226.01 24.65 224.01 C22.08 221.45 19.49 218.9 16.91 216.36 C14.92 214.4 12.94 212.43 10.97 210.46 C9.56 209.05 8.14 207.66 6.72 206.27 C5.44 204.99 5.44 204.99 4.15 203.68 C3.39 202.93 2.64 202.18 1.86 201.41 C0.38 199.31 0.38 199.31 0.53 197.18 C1.72 194.56 3.4 192.83 5.38 190.75 C8.66 187.22 11.79 183.63 14.81 179.88 C18.67 175.1 22.75 170.58 26.91 166.06 C29.32 163.38 31.61 160.62 33.88 157.81 C37.71 153.06 41.77 148.56 45.91 144.06 C48.32 141.38 50.61 138.62 52.88 135.81 C55.93 132.03 59.08 128.39 62.38 124.81 C66.49 120.34 70.35 115.72 74.16 111 C77.04 107.51 80.08 104.18 83.13 100.84 C85.44 98.24 87.63 95.58 89.81 92.88 C93.75 88.01 97.9 83.38 102.13 78.77 C104.64 76.02 107.03 73.2 109.38 70.31 C108.41 69.12 108.41 69.12 106.64 69.24 C105.86 69.27 105.08 69.3 104.28 69.33 C103.35 69.36 102.43 69.39 101.48 69.43 C100.43 69.47 99.39 69.52 98.31 69.56 C97.22 69.61 96.12 69.66 95 69.7 C91.63 69.86 88.26 70.02 84.89 70.19 C82.08 70.33 79.27 70.46 76.47 70.59 C71.04 70.86 65.61 71.14 60.18 71.45 C57.97 71.57 55.77 71.68 53.56 71.79 C50.42 71.94 47.29 72.12 44.16 72.3 C43.2 72.34 42.24 72.38 41.26 72.43 C40.38 72.48 39.5 72.54 38.6 72.6 C37.83 72.64 37.06 72.68 36.26 72.72 C34.19 73.14 34.19 73.14 33.26 75.2 C32.97 75.9 32.68 76.59 32.38 77.31 C30.69 79.11 28.96 80.85 27.19 82.56 C23.31 86.31 19.71 90.17 16.18 94.25 C13.25 97.6 10.18 100.83 7.12 104.06 C1.72 109.8 -3.64 115.58 -8.96 121.4 C-16.95 130.13 -25 138.79 -33.1 147.41 C-36.06 150.56 -39.01 153.72 -41.92 156.93 C-42.42 157.48 -42.92 158.03 -43.44 158.6 C-44.78 160.08 -46.12 161.57 -47.45 163.05 C-49.62 165.31 -49.62 165.31 -52.62 167.31 C-54.9 162.76 -54.05 156.71 -54.18 151.67 C-54.2 150.93 -54.23 150.19 -54.25 149.42 C-54.95 123.96 -54.74 98.48 -54.7 73.01 C-54.69 65.83 -54.68 58.64 -54.68 51.46 C-54.67 36.74 -54.65 22.03 -54.62 7.31 C-51.12 6.5 -47.62 5.7 -44.11 4.89 C-43.13 4.67 -42.14 4.44 -41.13 4.2 C-27.4 1.06 -14.05 -0.07 0 0 Z M-17.62 1.31 C-17.62 1.64 -17.62 1.97 -17.62 2.31 C-15.97 2.31 -14.32 2.31 -12.62 2.31 C-12.62 1.98 -12.62 1.65 -12.62 1.31 C-14.28 1.31 -15.93 1.31 -17.62 1.31 Z M14.38 1.31 C18.38 2.31 18.38 2.31 18.38 2.31 Z M187.38 231.31 C188.38 233.31 188.38 233.31 188.38 233.31 Z " fill="#38EDB7" transform="translate(241.625,54.6875)"/>
<path d="M0 0 C0.99 0.5 0.99 0.5 2 1 C1.99 1.91 1.99 2.82 1.98 3.76 C1.82 25.91 1.73 48.06 1.72 70.21 C1.71 80.92 1.68 91.63 1.59 102.35 C1.52 111.68 1.48 121.02 1.51 130.36 C1.52 135.3 1.51 140.25 1.44 145.19 C1.38 149.85 1.38 154.5 1.42 159.16 C1.43 160.86 1.41 162.57 1.37 164.27 C1.26 169.47 1.33 174.04 3 179 C6.96 182.81 10.94 184.82 16 187 C17.26 187.71 18.51 188.44 19.74 189.2 C20.73 189.76 21.71 190.32 22.73 190.89 C23.85 191.54 24.98 192.18 26.14 192.84 C26.71 193.16 27.28 193.48 27.87 193.82 C30.9 195.54 33.93 197.26 36.96 198.99 C37.56 199.33 38.16 199.67 38.78 200.02 C46.88 204.63 54.94 209.32 63 214 C63 207.4 63 200.8 63 194 C70.87 200.75 70.87 200.75 73.79 203.67 C74.45 204.34 75.11 205 75.8 205.68 C76.85 206.74 76.85 206.74 77.92 207.82 C78.68 208.58 79.44 209.34 80.22 210.13 C81.86 211.77 83.49 213.41 85.13 215.05 C87.72 217.66 90.31 220.26 92.91 222.86 C99.36 229.32 105.8 235.78 112.24 242.25 C117.69 247.72 123.14 253.18 128.59 258.65 C131.14 261.2 133.68 263.76 136.23 266.32 C137.8 267.89 139.38 269.47 140.95 271.05 C142 272.1 142 272.1 143.07 273.18 C146.97 277.09 150.98 280.81 155.17 284.4 C158.39 287.21 161.4 290.24 164.42 293.25 C165.09 293.92 165.76 294.58 166.44 295.27 C167.84 296.66 169.23 298.05 170.63 299.44 C172.75 301.57 174.89 303.68 177.02 305.79 C178.38 307.16 179.75 308.52 181.11 309.88 C181.74 310.5 182.37 311.13 183.03 311.77 C186.53 315.3 189.4 318.76 192 323 C171.86 330.35 150.73 336.03 129.16 336.24 C128.34 336.25 127.51 336.26 126.65 336.27 C123.98 336.29 121.3 336.31 118.62 336.31 C117.25 336.32 117.25 336.32 115.86 336.32 C100.57 336.33 85.98 335.28 71 332 C70.27 331.85 69.54 331.69 68.78 331.53 C44.8 326.3 21.81 315.36 2 301 C1.45 300.61 0.91 300.22 0.34 299.81 C-29.98 277.96 -57.13 245.76 -68.2 209.55 C-68.9 207.33 -69.71 205.29 -70.69 203.19 C-72.1 199.75 -72.52 196.67 -73 193 C-73.31 192.26 -73.61 191.52 -73.93 190.76 C-82.42 168.95 -80.63 135.38 -75 113 C-74.79 112.16 -74.58 111.31 -74.37 110.44 C-67.9 85.07 -57.29 60.65 -41 40 C-40.26 39.05 -39.53 38.11 -38.77 37.13 C-27.29 22.77 -14.62 11.07 0 0 Z M-77 132 C-76 134 -76 134 -76 134 Z M-77 167 C-76 169 -76 169 -76 169 Z " fill="#4FE7C1" transform="translate(125,92)"/>
<path d="M0 0 C1.18 0 1.18 0 2.39 0.01 C24.18 0.09 46.1 2.65 66.28 11.43 C68.33 12.29 70.37 12.93 72.5 13.56 C79.81 15.94 86.57 19.78 93.38 23.31 C94.37 23.82 95.37 24.33 96.39 24.85 C130.94 42.96 158.24 73.05 176.25 107.19 C176.71 108.07 177.18 108.95 177.66 109.85 C184.38 122.82 184.38 122.82 184.38 128.31 C177.76 130 171.77 130.6 164.97 130.56 C163.97 130.56 162.97 130.56 161.94 130.56 C158.66 130.56 155.38 130.55 152.1 130.54 C149.8 130.54 147.51 130.54 145.21 130.54 C140.41 130.54 135.61 130.53 130.81 130.52 C124.68 130.5 118.54 130.5 112.41 130.5 C107.67 130.5 102.94 130.49 98.2 130.49 C95.94 130.48 93.68 130.48 91.42 130.48 C88.25 130.48 85.08 130.47 81.91 130.46 C80.99 130.46 80.07 130.46 79.12 130.46 C73.15 130.43 67.3 130.01 61.38 129.31 C61.8 124.48 64.11 122 67.38 118.69 C68.39 117.63 69.4 116.56 70.4 115.5 C71.16 114.7 71.16 114.7 71.93 113.88 C74.04 111.59 75.99 109.18 77.94 106.75 C80.97 102.98 84.1 99.37 87.38 95.81 C91.5 91.33 95.37 86.71 99.19 81.97 C102.47 77.98 105.91 74.14 109.38 70.31 C108.41 69.12 108.41 69.12 106.64 69.24 C105.86 69.27 105.08 69.3 104.28 69.33 C103.35 69.36 102.43 69.39 101.48 69.43 C100.43 69.47 99.39 69.52 98.31 69.56 C97.22 69.61 96.12 69.66 95 69.7 C91.63 69.86 88.26 70.02 84.89 70.19 C82.08 70.33 79.27 70.46 76.47 70.59 C71.04 70.86 65.61 71.14 60.18 71.45 C57.97 71.57 55.77 71.68 53.56 71.79 C50.42 71.94 47.29 72.12 44.16 72.3 C43.2 72.34 42.24 72.38 41.26 72.43 C40.38 72.48 39.5 72.54 38.6 72.6 C37.83 72.64 37.06 72.68 36.26 72.72 C34.19 73.14 34.19 73.14 33.26 75.2 C32.97 75.9 32.68 76.59 32.38 77.31 C30.69 79.11 28.96 80.85 27.19 82.56 C23.31 86.31 19.71 90.17 16.18 94.25 C13.25 97.6 10.18 100.83 7.12 104.06 C1.72 109.8 -3.64 115.58 -8.96 121.4 C-16.95 130.13 -25 138.79 -33.1 147.41 C-36.06 150.56 -39.01 153.72 -41.92 156.93 C-42.42 157.48 -42.92 158.03 -43.44 158.6 C-44.78 160.08 -46.12 161.57 -47.45 163.05 C-49.62 165.31 -49.62 165.31 -52.62 167.31 C-54.9 162.76 -54.05 156.71 -54.18 151.67 C-54.2 150.93 -54.23 150.19 -54.25 149.42 C-54.95 123.96 -54.74 98.48 -54.7 73.01 C-54.69 65.83 -54.68 58.64 -54.68 51.46 C-54.67 36.74 -54.65 22.03 -54.62 7.31 C-51.12 6.5 -47.62 5.7 -44.11 4.89 C-43.13 4.67 -42.14 4.44 -41.13 4.2 C-27.4 1.06 -14.05 -0.07 0 0 Z M-17.62 1.31 C-17.62 1.64 -17.62 1.97 -17.62 2.31 C-15.97 2.31 -14.32 2.31 -12.62 2.31 C-12.62 1.98 -12.62 1.65 -12.62 1.31 C-14.28 1.31 -15.93 1.31 -17.62 1.31 Z M14.38 1.31 C18.38 2.31 18.38 2.31 18.38 2.31 Z " fill="#78DDD6" transform="translate(241.625,54.6875)"/>
<path d="M0 0 C2.03 -0.01 4.05 -0.06 6.08 -0.11 C7.37 -0.12 8.65 -0.13 9.97 -0.13 C11.15 -0.15 12.32 -0.16 13.54 -0.17 C19.28 0.9 22.01 5.54 25.16 10.14 C25.78 11.04 26.41 11.94 27.05 12.87 C27.71 13.84 28.37 14.81 29.05 15.8 C30.48 17.88 31.91 19.96 33.35 22.04 C34.08 23.1 34.81 24.17 35.56 25.26 C38.93 30.16 42.33 35.04 45.73 39.93 C47.07 41.84 48.4 43.76 49.73 45.68 C50.72 47.1 50.72 47.1 51.73 48.55 C57.73 57.18 57.73 57.18 59.74 60.06 C61.06 61.96 62.38 63.85 63.7 65.75 C67.22 70.81 70.73 75.87 74.23 80.95 C74.96 82.01 75.69 83.07 76.45 84.17 C77.86 86.22 79.28 88.27 80.68 90.33 C81.32 91.25 81.95 92.16 82.6 93.11 C83.16 93.92 83.72 94.73 84.29 95.57 C85.61 97.54 85.61 97.54 87.73 98.43 C88.06 99.42 88.39 100.41 88.73 101.43 C88.73 100.17 88.73 98.92 88.73 97.64 C88.71 85.88 88.69 74.12 88.68 62.36 C88.68 56.32 88.67 50.27 88.66 44.23 C88.65 38.4 88.64 32.57 88.64 26.74 C88.64 24.51 88.63 22.28 88.63 20.05 C88.62 16.94 88.62 13.83 88.62 10.72 C88.62 9.79 88.61 8.86 88.61 7.9 C88.62 1.54 88.62 1.54 89.73 0.43 C92.23 0.32 94.7 0.29 97.2 0.29 C97.95 0.29 98.7 0.29 99.47 0.29 C101.05 0.29 102.64 0.29 104.23 0.3 C106.66 0.3 109.09 0.3 111.52 0.29 C113.06 0.29 114.6 0.29 116.14 0.29 C116.87 0.29 117.6 0.29 118.35 0.29 C123.5 0.31 123.5 0.31 125.73 1.43 C125.73 57.53 125.73 113.63 125.73 171.43 C115.17 171.43 104.61 171.43 93.73 171.43 C89.58 166.09 85.56 160.88 81.8 155.3 C80.85 153.91 79.9 152.52 78.96 151.14 C78.45 150.39 77.94 149.64 77.41 148.87 C74.21 144.2 70.97 139.57 67.73 134.93 C63.17 128.38 58.62 121.82 54.11 115.24 C45.83 103.16 37.42 91.16 28.92 79.24 C28.51 78.66 28.09 78.07 27.67 77.47 C25.84 74.84 25.84 74.84 23.73 72.43 C23.4 105.1 23.07 137.77 22.73 171.43 C10.85 171.43 -1.03 171.43 -13.27 171.43 C-14.71 168.55 -14.4 166.08 -14.4 162.86 C-14.4 162.18 -14.4 161.49 -14.41 160.79 C-14.41 158.49 -14.41 156.2 -14.41 153.9 C-14.41 152.26 -14.42 150.62 -14.42 148.97 C-14.43 144.5 -14.43 140.04 -14.43 135.57 C-14.43 131.84 -14.44 128.12 -14.44 124.39 C-14.45 115.6 -14.45 106.82 -14.45 98.03 C-14.45 88.96 -14.46 79.88 -14.48 70.81 C-14.49 63.02 -14.5 55.24 -14.5 47.46 C-14.49 42.81 -14.5 38.16 -14.51 33.5 C-14.52 29.13 -14.52 24.76 -14.51 20.38 C-14.51 18.78 -14.51 17.17 -14.52 15.56 C-14.53 13.37 -14.52 11.18 -14.51 8.99 C-14.51 7.77 -14.51 6.54 -14.52 5.27 C-13.87 -2.07 -5.67 0.02 0 0 Z " fill="#FAFCFC" transform="translate(957.266357421875,207.574462890625)"/>
<path d="M0 0 C7.86 1.06 14.73 5.82 21.49 9.7 C22.74 10.41 23.98 11.12 25.23 11.84 C25.85 12.2 26.48 12.56 27.13 12.93 C30.03 14.59 32.93 16.24 35.82 17.89 C49.24 25.55 62.64 33.24 76 41 C76 34.4 76 27.8 76 21 C83.87 27.75 83.87 27.75 86.79 30.67 C87.78 31.67 87.78 31.67 88.8 32.68 C89.5 33.39 90.2 34.09 90.92 34.82 C92.06 35.96 92.06 35.96 93.22 37.13 C94.86 38.77 96.49 40.41 98.13 42.05 C100.72 44.66 103.31 47.26 105.91 49.86 C112.36 56.32 118.8 62.78 125.24 69.25 C130.69 74.72 136.14 80.18 141.59 85.65 C144.14 88.2 146.68 90.76 149.23 93.32 C150.8 94.89 152.38 96.47 153.95 98.05 C154.65 98.75 155.35 99.46 156.07 100.18 C159.97 104.09 163.98 107.81 168.17 111.4 C171.39 114.21 174.4 117.24 177.42 120.25 C178.09 120.92 178.76 121.58 179.44 122.27 C180.84 123.66 182.23 125.05 183.63 126.44 C185.75 128.57 187.89 130.68 190.02 132.79 C191.38 134.16 192.75 135.52 194.11 136.88 C194.74 137.5 195.37 138.13 196.03 138.77 C199.53 142.3 202.4 145.76 205 150 C184.86 157.35 163.73 163.03 142.16 163.24 C141.34 163.25 140.51 163.26 139.65 163.27 C136.98 163.29 134.3 163.31 131.62 163.31 C130.25 163.32 130.25 163.32 128.86 163.32 C113.57 163.33 98.98 162.28 84 159 C82.9 158.77 82.9 158.77 81.78 158.53 C57.8 153.3 34.81 142.36 15 128 C14.45 127.61 13.91 127.22 13.34 126.81 C-1.59 116.05 -18.68 102.07 -28 86 C-26.41 78.64 -20.22 72.22 -15 67 C-6.47 67 -1.08 70.55 6 75 C7.47 75.82 8.95 76.64 10.44 77.44 C13.84 79.31 17.14 81.32 20.44 83.38 C27.29 87.63 34.26 91.66 41.25 95.69 C42.36 96.33 43.48 96.97 44.62 97.63 C46.76 98.86 48.91 100.09 51.06 101.31 C52.9 102.37 54.73 103.44 56.55 104.54 C61.14 107.26 64.6 108.64 70.06 108.81 C71.19 108.86 72.31 108.91 73.47 108.96 C74.31 108.97 75.14 108.99 76 109 C74.88 104.55 72.8 102.83 68.95 100.46 C68.27 100.06 67.58 99.66 66.88 99.25 C66.16 98.82 65.44 98.38 64.7 97.94 C58.65 94.31 52.5 90.84 46.33 87.41 C42.28 85.17 38.27 82.86 34.26 80.55 C27.06 76.41 19.84 72.36 12.44 68.56 C2.5 63.45 -6.73 57.22 -16 51 C-15.67 49.35 -15.34 47.7 -15 46 C-8.5 45.02 -4.08 48.46 1.25 51.69 C3.05 52.76 4.84 53.82 6.64 54.89 C7.53 55.41 8.43 55.94 9.35 56.49 C11.86 57.92 14.39 59.23 16.98 60.5 C22.48 63.19 27.73 66.26 33 69.38 C35.1 70.61 37.2 71.84 39.3 73.07 C40.38 73.71 41.47 74.35 42.59 75 C47.89 78.11 53.2 81.18 58.52 84.25 C60.22 85.23 61.92 86.22 63.62 87.2 C64.66 87.8 65.7 88.4 66.77 89.02 C67.68 89.54 68.6 90.07 69.54 90.62 C71.67 91.81 73.81 92.93 76 94 C75.86 91.9 75.71 89.79 75.56 87.69 C75.48 86.52 75.4 85.34 75.32 84.14 C75.11 80.97 75.11 80.97 74 78 C72 77.32 70 76.66 68 76 C64.67 74.24 61.47 72.27 58.25 70.31 C56.29 69.14 54.32 67.96 52.36 66.79 C51.32 66.17 50.29 65.55 49.23 64.92 C43.7 61.63 38.13 58.41 32.56 55.19 C31.46 54.55 30.35 53.91 29.22 53.26 C23.38 49.9 17.52 46.62 11.56 43.5 C7.19 41.19 2.87 38.85 -1.38 36.31 C-2.25 35.79 -3.12 35.27 -4.02 34.74 C-6 33 -6 33 -6.91 30.42 C-6.94 29.62 -6.97 28.82 -7 28 C-6.34 27.34 -5.68 26.68 -5 26 C-0.76 26.3 1.98 28.08 5.44 30.44 C8.24 32.35 10.61 33.87 13.84 34.92 C16.96 35.99 19.52 37.29 22.36 38.95 C23.38 39.54 24.4 40.14 25.45 40.75 C26.54 41.39 27.63 42.03 28.75 42.69 C30.48 43.7 32.21 44.7 33.94 45.71 C35.74 46.76 37.54 47.81 39.34 48.87 C45.28 52.33 51.23 55.76 57.19 59.19 C59.31 60.41 61.42 61.63 63.54 62.86 C67.69 65.25 71.84 67.63 76 70 C75.86 67.06 75.71 64.12 75.56 61.19 C75.52 60.35 75.48 59.52 75.44 58.66 C75.4 57.86 75.36 57.06 75.32 56.23 C75.28 55.49 75.24 54.75 75.21 53.99 C75.05 51.79 75.05 51.79 74 49 C72.02 48.29 70.01 47.63 68 47 C66.2 45.97 64.43 44.88 62.69 43.75 C56.32 39.71 49.78 36.03 43.19 32.38 C34.39 27.48 25.63 22.51 16.94 17.44 C15.96 16.87 14.98 16.3 13.97 15.71 C8.59 12.56 3.27 9.33 -2 6 C-1.12 1.12 -1.12 1.12 0 0 Z " fill="#00F99B" transform="translate(112,265)"/>
<path d="M0 0 C0.96 0.45 1.92 0.89 2.91 1.36 C15.9 8.15 27.25 20.03 34 33 C34.46 33.84 34.91 34.69 35.38 35.56 C47.74 60.39 47.31 93.48 38.75 119.38 C31.33 138.44 17.63 153.95 -0.98 162.75 C-20.16 170.68 -42.99 170.13 -62.25 162.81 C-82.35 153.73 -96.04 136.1 -104 116 C-112.9 88.95 -111.34 59.64 -99 34 C-89.26 14.78 -74.09 3.23 -54.41 -4.39 C-36.17 -10.11 -17.09 -8.01 0 0 Z M-59.85 40.85 C-68.97 52.23 -72.58 66.62 -72.38 80.94 C-72.36 81.99 -72.35 83.05 -72.34 84.14 C-72.05 98.41 -68.39 113.37 -57.75 123.62 C-48.35 131.03 -36.92 132.7 -25.2 131.78 C-15.34 130.19 -8.42 125.34 -2.01 117.8 C8.39 103.3 9.01 82.91 6.46 65.78 C4.2 54.41 0.07 45.07 -8.19 36.81 C-25.18 25.86 -44.96 25.99 -59.85 40.85 Z M-107 60 C-106 62 -106 62 -106 62 Z M-108 67 C-107 70 -107 70 -107 70 Z M7 68 C8 70 8 70 8 70 Z M-108 92 C-107 96 -107 96 -107 96 Z M7 92 C8 95 8 95 8 95 Z " fill="#FAFCFC" transform="translate(714,213)"/>
<path d="M0 0 C0.73 0 1.46 0 2.22 0.01 C2.97 0.01 3.72 0 4.49 0 C6.07 0 7.66 0 9.25 0.01 C11.68 0.01 14.11 0.01 16.54 0 C18.08 0 19.62 0 21.16 0.01 C21.89 0 22.62 0 23.37 0 C28.52 0.02 28.52 0.02 30.75 1.14 C31.08 20.61 31.41 40.08 31.75 60.14 C36.7 56.09 36.7 56.09 40.88 51.64 C44.08 47.88 47.4 44.25 50.75 40.64 C53.97 37.18 57.17 33.71 60.25 30.14 C63.81 26.03 67.5 22.06 71.19 18.08 C75.14 13.81 79.04 9.5 82.91 5.16 C83.83 4.16 83.83 4.16 84.75 3.14 C85.2 2.61 85.64 2.08 86.09 1.53 C88.24 -0.27 89.4 -0.23 92.18 -0.22 C93.07 -0.22 93.96 -0.22 94.88 -0.23 C95.84 -0.21 96.8 -0.2 97.79 -0.19 C99.27 -0.19 99.27 -0.19 100.78 -0.18 C102.87 -0.18 104.95 -0.16 107.04 -0.14 C110.24 -0.11 113.44 -0.1 116.64 -0.1 C118.67 -0.09 120.7 -0.08 122.72 -0.06 C123.68 -0.06 124.64 -0.06 125.63 -0.05 C126.52 -0.04 127.41 -0.03 128.33 -0.02 C129.11 -0.02 129.9 -0.01 130.71 -0 C132.75 0.14 132.75 0.14 135.75 1.14 C134.46 3.98 133.07 6.1 130.92 8.35 C130.35 8.95 129.79 9.55 129.21 10.16 C128.3 11.11 128.3 11.11 127.38 12.08 C126.1 13.43 124.82 14.78 123.54 16.14 C122.9 16.81 122.26 17.49 121.6 18.19 C118.98 20.96 116.4 23.77 113.82 26.58 C108.1 32.78 102.33 38.94 96.55 45.09 C92.33 49.59 88.11 54.09 83.92 58.61 C80.96 61.79 77.98 64.94 74.95 68.05 C74.04 69 74.04 69 73.1 69.97 C71.94 71.18 70.76 72.38 69.58 73.57 C67.81 75.36 67.81 75.36 65.75 78.14 C66.08 81.27 67.33 83.21 69.24 85.65 C69.76 86.32 70.27 86.98 70.8 87.67 C71.36 88.38 71.93 89.09 72.5 89.83 C73.69 91.36 74.88 92.89 76.07 94.42 C76.68 95.2 77.29 95.98 77.92 96.79 C80.79 100.47 83.61 104.18 86.44 107.89 C91 113.86 95.58 119.81 100.16 125.76 C103.76 130.44 107.34 135.14 110.93 139.83 C113.88 143.69 116.84 147.55 119.82 151.4 C133.75 169.43 133.75 169.43 133.75 171.14 C91.15 174.25 91.15 174.25 83.14 167.8 C80 164.17 77.93 160.08 76 155.71 C73.88 151.33 70.85 147.66 67.88 143.83 C66.72 142.26 65.57 140.68 64.43 139.11 C59.73 132.73 54.91 126.44 50.08 120.17 C46.82 115.91 43.66 111.65 40.75 107.14 C39.06 108.78 37.4 110.45 35.75 112.14 C35.05 112.77 34.35 113.4 33.62 114.05 C30.67 118.93 31.15 123.84 31.14 129.44 C31.13 130.63 31.11 131.82 31.09 133.05 C31.05 136.85 31.02 140.65 31 144.45 C30.98 147.03 30.95 149.61 30.91 152.19 C30.84 158.51 30.8 164.82 30.75 171.14 C18.87 171.14 6.99 171.14 -5.25 171.14 C-5.4 148.99 -5.55 126.84 -5.69 104.7 C-5.75 94.41 -5.82 84.13 -5.89 73.85 C-5.96 64.89 -6.02 55.93 -6.07 46.97 C-6.1 42.22 -6.13 37.47 -6.17 32.73 C-6.2 28.27 -6.23 23.8 -6.25 19.34 C-6.26 17.7 -6.27 16.05 -6.29 14.41 C-6.31 12.18 -6.32 9.95 -6.33 7.71 C-6.34 5.83 -6.34 5.83 -6.35 3.92 C-6.17 -0.86 -4.28 0.02 0 0 Z " fill="#F9FCFC" transform="translate(488.24583435058594,207.86105346679688)"/>
<path d="M0 0 C1.35 -0 1.35 -0 2.72 -0.01 C3.72 -0.01 4.71 -0 5.74 -0 C6.78 -0 7.82 -0.01 8.89 -0.01 C12.35 -0.01 15.81 -0.01 19.26 -0.01 C21.66 -0.01 24.05 -0.01 26.44 -0.01 C31.47 -0.01 36.49 -0.01 41.51 -0 C47.96 0 54.41 -0 60.87 -0.01 C65.81 -0.01 70.75 -0.01 75.7 -0.01 C78.08 -0.01 80.46 -0.01 82.83 -0.01 C86.16 -0.01 89.48 -0.01 92.8 -0 C94.29 -0.01 94.29 -0.01 95.8 -0.01 C97.16 -0 97.16 -0 98.54 0 C99.32 0 100.11 0 100.92 0 C102.83 0.13 102.83 0.13 104.83 1.13 C104.83 12.35 104.83 23.57 104.83 35.13 C80.74 35.46 56.65 35.79 31.83 36.13 C32.16 46.69 32.49 57.25 32.83 68.13 C66 68.62 66 68.62 99.83 69.13 C99.83 80.35 99.83 91.57 99.83 103.13 C77.39 103.46 54.95 103.79 31.83 104.13 C32.16 114.69 32.49 125.25 32.83 136.13 C56.92 136.46 81.01 136.79 105.83 137.13 C105.83 148.35 105.83 159.57 105.83 171.13 C69.53 171.13 33.23 171.13 -4.17 171.13 C-4.46 128.54 -4.46 128.54 -4.57 110.75 C-4.65 98.44 -4.73 86.14 -4.82 73.83 C-4.88 64.88 -4.94 55.92 -4.99 46.96 C-5.02 42.21 -5.05 37.46 -5.09 32.72 C-5.12 28.25 -5.15 23.79 -5.18 19.33 C-5.19 17.69 -5.2 16.04 -5.21 14.4 C-5.23 12.17 -5.24 9.93 -5.25 7.7 C-5.26 5.82 -5.26 5.82 -5.28 3.9 C-5.11 -0.43 -3.92 0 0 0 Z " fill="#FBFDFD" transform="translate(1106.168930053711,207.87301635742188)"/>
<path d="M0 0 C0.7 0 1.4 0.01 2.13 0.01 C3.21 0.01 3.21 0.01 4.32 0.01 C5.85 0.01 7.38 0.01 8.9 0.02 C11.24 0.03 13.58 0.02 15.92 0 C17.41 0.01 18.89 0.01 20.38 0.01 C21.08 0.01 21.78 0 22.5 0 C26.16 0.04 27.68 0.19 30.82 2.28 C31.2 4.62 31.2 4.62 31.22 7.61 C31.23 8.74 31.24 9.87 31.26 11.03 C31.25 12.28 31.25 13.52 31.25 14.81 C31.27 16.77 31.27 16.77 31.28 18.77 C31.31 22.36 31.32 25.95 31.33 29.54 C31.33 33.29 31.36 37.04 31.39 40.79 C31.43 47.89 31.46 55 31.48 62.1 C31.51 71.7 31.57 81.3 31.62 90.9 C31.71 106.02 31.76 121.15 31.82 136.28 C65.97 136.77 65.97 136.77 100.82 137.28 C100.82 148.5 100.82 159.72 100.82 171.28 C65.51 171.28 30.2 171.28 -6.18 171.28 C-7.62 168.4 -7.31 165.93 -7.31 162.71 C-7.32 162.03 -7.32 161.35 -7.32 160.64 C-7.33 158.35 -7.33 156.05 -7.33 153.75 C-7.33 152.11 -7.33 150.47 -7.34 148.83 C-7.35 144.36 -7.35 139.89 -7.35 135.42 C-7.35 131.69 -7.35 127.97 -7.36 124.24 C-7.36 115.46 -7.37 106.67 -7.37 97.89 C-7.37 88.81 -7.38 79.73 -7.39 70.66 C-7.41 62.88 -7.41 55.09 -7.41 47.31 C-7.41 42.66 -7.41 38.01 -7.42 33.36 C-7.43 28.98 -7.43 24.61 -7.43 20.24 C-7.42 18.63 -7.43 17.02 -7.43 15.41 C-7.44 13.22 -7.44 11.03 -7.43 8.84 C-7.43 7.62 -7.43 6.39 -7.43 5.13 C-6.98 0.02 -4.58 0.04 0 0 Z " fill="#FBFDFD" transform="translate(777.1810150146484,207.72210693359375)"/>
<path d="M0 0 C0.5 0.99 0.5 0.99 1 2 C15.69 2.02 30.38 2.04 45.07 2.05 C51.9 2.06 58.72 2.06 65.54 2.08 C72.13 2.09 78.71 2.09 85.3 2.09 C87.81 2.1 90.32 2.1 92.83 2.11 C96.35 2.11 99.88 2.11 103.4 2.11 C104.43 2.12 105.46 2.12 106.52 2.12 C112.74 2.12 118.83 1.75 125 1 C128.14 9.99 130.55 18.94 132.25 28.31 C132.49 29.65 132.49 29.65 132.74 31.02 C134.49 41.08 135.16 50.98 135.06 61.19 C135.06 62.14 135.05 63.09 135.05 64.07 C135.04 66.38 135.02 68.69 135 71 C134.67 71 134.34 71 134 71 C134 66.38 134 61.76 134 57 C133.01 57.33 132.02 57.66 131 58 C128.76 58.1 126.52 58.13 124.28 58.13 C123.25 58.14 123.25 58.14 122.2 58.14 C119.89 58.15 117.58 58.15 115.27 58.15 C113.62 58.15 111.97 58.15 110.32 58.16 C105.82 58.16 101.33 58.17 96.83 58.17 C93.08 58.17 89.33 58.17 85.58 58.18 C76.72 58.18 67.86 58.19 59.01 58.19 C49.88 58.18 40.75 58.2 31.62 58.21 C23.78 58.22 15.94 58.23 8.1 58.23 C3.42 58.23 -1.27 58.23 -5.95 58.24 C-10.35 58.25 -14.76 58.25 -19.17 58.24 C-20.78 58.24 -22.4 58.25 -24.01 58.25 C-39.03 58.3 -39.03 58.3 -46 56 C-45.13 51.58 -42.68 48.97 -39.75 45.69 C-38.95 44.77 -38.95 44.77 -38.13 43.84 C-37 42.54 -35.86 41.25 -34.72 39.96 C-31.96 36.82 -29.23 33.66 -26.5 30.5 C-25.41 29.25 -24.33 27.99 -23.24 26.74 C-20.04 23.05 -16.86 19.34 -13.69 15.62 C-9.19 10.36 -4.63 5.15 0 0 Z " fill="#4FE7C1" transform="translate(302,182)"/>
<path d="M0 0 C0.73 0.28 1.45 0.55 2.2 0.84 C9.86 4.11 16.39 11.19 21 18 C21 18.99 21 19.98 21 21 C21.66 21.33 22.32 21.66 23 22 C14.99 47.21 5.13 72.87 -14 92 C-27.46 93.86 -39.39 88.75 -50.12 81.19 C-59.92 73.52 -65.05 64.02 -68 52 C-69.43 36.96 -65.3 23.95 -56.4 11.82 C-42.48 -3.91 -18.77 -7.97 0 0 Z " fill="#FAFCFC" transform="translate(408,267)"/>
<path d="M0 0 C0.73 0 1.46 0 2.22 0.01 C2.97 0.01 3.72 0 4.49 0 C6.07 0 7.66 0 9.25 0.01 C11.68 0.01 14.11 0.01 16.54 0 C18.08 0 19.62 0 21.16 0.01 C21.89 0 22.62 0 23.37 0 C28.52 0.02 28.52 0.02 30.75 1.14 C30.75 57.24 30.75 113.34 30.75 171.14 C18.87 171.14 6.99 171.14 -5.25 171.14 C-5.4 148.99 -5.55 126.84 -5.69 104.7 C-5.75 94.41 -5.82 84.13 -5.89 73.85 C-5.96 64.89 -6.02 55.93 -6.07 46.97 C-6.1 42.22 -6.13 37.47 -6.17 32.73 C-6.2 28.27 -6.23 23.8 -6.25 19.34 C-6.26 17.7 -6.27 16.05 -6.29 14.41 C-6.31 12.18 -6.32 9.95 -6.33 7.71 C-6.34 5.83 -6.34 5.83 -6.35 3.92 C-6.17 -0.86 -4.28 0.02 0 0 Z " fill="#FBFDFD" transform="translate(894.2458343505859,207.86105346679688)"/>
<path d="M0 0 C3.85 0.58 6.59 1.71 9.93 3.7 C10.88 4.27 11.83 4.83 12.81 5.41 C14.33 6.32 14.33 6.32 15.88 7.25 C18.03 8.52 20.18 9.8 22.33 11.07 C23.43 11.72 24.53 12.37 25.67 13.04 C30.93 16.13 36.24 19.13 41.56 22.12 C42.51 22.66 43.45 23.19 44.42 23.74 C45.32 24.24 46.21 24.74 47.13 25.26 C47.96 25.73 48.8 26.2 49.66 26.69 C51.14 27.52 52.63 28.34 54.13 29.15 C57.31 30.88 58.95 31.93 61 35 C61.23 36.99 61.23 36.99 61.2 39.23 C61.19 40.43 61.19 40.43 61.18 41.66 C61.15 42.91 61.15 42.91 61.12 44.19 C61.12 45.03 61.11 45.88 61.1 46.75 C61.07 48.83 61.04 50.92 61 53 C56.47 51.35 52.38 49.1 48.19 46.75 C47.42 46.32 46.65 45.89 45.85 45.45 C36.06 39.95 26.39 34.25 16.7 28.58 C13.12 26.48 9.53 24.39 5.94 22.31 C4.94 21.73 3.93 21.15 2.9 20.55 C-0.06 18.91 -0.06 18.91 -3.55 17.5 C-7.57 15.75 -11.02 13.52 -14.67 11.11 C-16.92 9.77 -16.92 9.77 -19.3 10.33 C-19.86 10.55 -20.42 10.77 -21 11 C-20.62 14.73 -20.62 14.73 -18.28 17.49 C-17.53 17.9 -16.78 18.31 -16.01 18.73 C-15.17 19.19 -14.33 19.66 -13.46 20.15 C-12.55 20.63 -11.63 21.12 -10.69 21.62 C-9.74 22.15 -8.79 22.67 -7.81 23.21 C-4.88 24.83 -1.94 26.42 1 28 C4.21 29.74 7.42 31.5 10.62 33.25 C11.42 33.68 12.22 34.12 13.03 34.56 C21.63 39.28 30.04 44.3 38.45 49.34 C44.5 52.96 50.58 56.44 56.85 59.66 C59 61 59 61 61 64 C61.2 67.14 61.2 67.14 61.12 70.69 C61.11 71.87 61.09 73.05 61.07 74.26 C61.05 75.17 61.02 76.07 61 77 C56.89 75.74 53.35 74.22 49.64 72.05 C48.62 71.46 47.6 70.86 46.55 70.25 C45.46 69.61 44.37 68.97 43.25 68.31 C42.1 67.64 40.95 66.97 39.79 66.3 C37.39 64.9 35 63.51 32.6 62.11 C11.59 49.76 11.59 49.76 -9.86 38.23 C-14.14 36.04 -18.2 33.67 -22.2 31.02 C-24.72 29.59 -27.14 29.21 -30 29 C-30.43 31.34 -30.43 31.34 -30 34 C-27.81 36.07 -27.81 36.07 -24.8 37.74 C-23.15 38.75 -23.15 38.75 -21.47 39.77 C-20.27 40.47 -19.07 41.18 -17.88 41.88 C-16.67 42.6 -15.46 43.32 -14.26 44.05 C-7.33 48.18 -0.32 52.04 6.98 55.5 C11.49 57.74 15.69 60.43 19.95 63.11 C22.6 64.75 25.26 66.28 28 67.75 C33.64 70.79 39.23 73.91 44.81 77.06 C45.72 77.57 46.63 78.08 47.56 78.6 C52.43 81.36 57.04 84.01 61 88 C61 89.32 61 90.64 61 92 C49.31 93.86 42.27 89.55 32.64 83.61 C29.77 81.86 26.86 80.17 23.93 78.5 C14.62 73.16 5.44 67.77 -3.4 61.68 C-8.04 58.68 -13.02 56.37 -18 54 C-18.98 53.45 -19.96 52.9 -20.98 52.33 C-24.4 50.83 -26.31 50.36 -30 51 C-35.47 55.83 -39.69 62.08 -42 69 C-45.86 65.36 -48.9 61.61 -51.81 57.19 C-52.24 56.54 -52.67 55.89 -53.12 55.22 C-60.46 43.88 -68.06 30.24 -71 17 C-67.12 14.42 -63.94 14.77 -59.46 14.83 C-57.73 14.83 -55.99 14.82 -54.26 14.81 C-51.54 14.81 -48.82 14.81 -46.1 14.85 C-34.2 15.51 -34.2 15.51 -24.07 10.39 C-23.32 9.41 -23.32 9.41 -22.54 8.41 C-22.03 7.94 -21.52 7.48 -21 7 C-16.96 7.35 -13.46 8.93 -9.75 10.5 C-8.69 10.94 -7.64 11.39 -6.55 11.84 C-4 13 -4 13 -3 14 C-0.32 11.32 -0.61 9.61 -0.38 5.88 C-0.3 4.78 -0.23 3.68 -0.15 2.55 C-0.07 1.29 -0.07 1.29 0 0 Z " fill="#24F3A9" transform="translate(127,282)"/>
<path d="M0 0 C0.5 0.99 0.5 0.99 1 2 C6.27 3.08 11.46 3.15 16.82 3.13 C17.64 3.13 18.46 3.13 19.31 3.14 C21.04 3.14 22.76 3.13 24.49 3.13 C27.12 3.13 29.76 3.13 32.39 3.14 C34.08 3.14 35.76 3.13 37.45 3.13 C38.62 3.14 38.62 3.14 39.82 3.14 C43.67 3.12 47.26 2.94 51 2 C61.54 13.98 79 37.53 79 54 C72.39 55.69 66.4 56.28 59.59 56.24 C58.59 56.24 57.59 56.25 56.56 56.25 C53.28 56.25 50 56.24 46.72 56.23 C44.43 56.23 42.13 56.23 39.84 56.23 C35.04 56.23 30.24 56.22 25.44 56.21 C19.3 56.19 13.17 56.18 7.03 56.19 C2.3 56.19 -2.44 56.18 -7.17 56.17 C-9.44 56.17 -11.7 56.17 -13.96 56.17 C-17.13 56.16 -20.29 56.16 -23.46 56.15 C-24.38 56.15 -25.31 56.15 -26.26 56.15 C-32.22 56.12 -38.07 55.7 -44 55 C-43.58 50.17 -41.27 47.69 -38 44.38 C-36.99 43.31 -35.98 42.25 -34.97 41.18 C-34.47 40.65 -33.96 40.12 -33.45 39.57 C-31.33 37.28 -29.39 34.87 -27.44 32.44 C-24.41 28.67 -21.27 25.06 -18 21.5 C-11.66 14.61 -5.85 7.31 0 0 Z " fill="#65E2CD" transform="translate(347,129)"/>
<path d="M0 0 C2.76 0.52 5.33 1.11 8 2 C10.11 2.1 12.22 2.14 14.34 2.14 C16.3 2.15 16.3 2.15 18.3 2.16 C19 2.16 19.7 2.17 20.42 2.17 C22.61 2.18 24.8 2.19 26.99 2.21 C33.21 2.26 39.44 2.31 45.66 2.33 C49.47 2.34 53.28 2.37 57.09 2.41 C58.54 2.42 59.99 2.42 61.45 2.42 C63.48 2.42 65.51 2.44 67.53 2.47 C69.27 2.48 69.27 2.48 71.03 2.49 C74.63 3.11 75.82 4.11 78 7 C78.45 10.02 78.45 10.02 78.39 13.52 C78.38 14.77 78.36 16.02 78.35 17.3 C78.32 18.61 78.28 19.91 78.25 21.25 C78.23 22.57 78.21 23.88 78.2 25.24 C78.15 28.5 78.08 31.75 78 35 C77.17 34.57 76.34 34.13 75.48 33.69 C74.39 33.13 73.31 32.57 72.19 32 C71.11 31.44 70.03 30.89 68.92 30.31 C66.08 28.79 66.08 28.79 63 29 C62.67 30.65 62.34 32.3 62 34 C67.61 37.3 73.22 40.6 79 44 C78.51 54.74 78.51 54.74 78 58 C77.01 58.66 76.02 59.32 75 60 C74.38 59.59 73.76 59.18 73.12 58.75 C65.97 54.46 65.97 54.46 58.04 53.27 C55.65 54.12 54.62 55.19 52.88 57.01 C48.5 60.9 44.58 60.86 38.91 60.8 C37.97 60.82 37.02 60.83 36.05 60.85 C33.05 60.88 30.06 60.88 27.06 60.88 C25.02 60.89 22.98 60.91 20.94 60.94 C15.96 60.99 10.98 61 6 61 C4.13 54.3 2.37 47.6 0.88 40.81 C0.71 40.07 0.54 39.33 0.36 38.56 C-1.18 31.6 -2.14 24.78 -2.12 17.62 C-2.13 16.61 -2.13 15.59 -2.13 14.54 C-2 12 -2 12 -1 10 C-0.77 8.3 -0.59 6.59 -0.44 4.88 C-0.35 3.96 -0.27 3.05 -0.18 2.12 C-0.12 1.42 -0.06 0.72 0 0 Z M-1 22 C0 24 0 24 0 24 Z " fill="#37EEB6" transform="translate(49,237)"/>
<path d="M0 0 C0.99 0.5 0.99 0.5 2 1 C2 32.35 2 63.7 2 96 C0.02 95.01 0.02 95.01 -2 94 C-4.6 93.68 -4.6 93.68 -7.45 93.7 C-8.54 93.68 -9.64 93.66 -10.76 93.65 C-11.94 93.64 -13.11 93.63 -14.32 93.62 C-15.54 93.6 -16.76 93.59 -18.01 93.57 C-21.9 93.52 -25.79 93.48 -29.69 93.44 C-33.56 93.39 -37.44 93.35 -41.31 93.29 C-43.72 93.26 -46.13 93.24 -48.54 93.21 C-54.77 93.14 -60.83 92.81 -67 92 C-67.33 92.99 -67.66 93.98 -68 95 C-68.35 89.98 -67.2 86.3 -65.12 81.81 C-64.66 80.78 -64.66 80.78 -64.18 79.73 C-49.29 47.35 -28.37 21.49 0 0 Z " fill="#65E2CD" transform="translate(125,92)"/>
<path d="M0 0 C1.41 -0 2.82 -0.01 4.23 -0.01 C7.16 -0.02 10.09 -0.02 13.02 -0.01 C16.77 -0.01 20.52 -0.03 24.27 -0.05 C27.17 -0.06 30.07 -0.06 32.97 -0.06 C34.36 -0.06 35.74 -0.07 37.12 -0.08 C39.05 -0.09 40.98 -0.08 42.92 -0.07 C44.01 -0.07 45.11 -0.07 46.24 -0.07 C49.64 0.36 51.55 1.13 54.2 3.3 C54.2 7.8 54.2 7.8 51.52 10.55 C50.95 11.15 50.37 11.76 49.78 12.38 C49.16 13.01 48.53 13.65 47.89 14.3 C46.59 15.65 45.3 17 44 18.36 C43.03 19.36 43.03 19.36 42.04 20.38 C39.51 23.02 37.04 25.72 34.57 28.43 C29.3 34.19 24 39.93 18.7 45.67 C17.23 47.26 15.77 48.86 14.3 50.45 C8.15 57.13 1.95 63.78 -4.28 70.4 C-7.24 73.55 -10.19 76.71 -13.09 79.91 C-13.6 80.47 -14.1 81.02 -14.62 81.59 C-15.96 83.07 -17.29 84.56 -18.63 86.04 C-20.8 88.3 -20.8 88.3 -23.8 90.3 C-25.28 87.33 -25.04 84.27 -25.12 81.01 C-25.14 80.28 -25.16 79.54 -25.18 78.78 C-25.22 77.21 -25.26 75.64 -25.3 74.08 C-25.36 71.73 -25.43 69.39 -25.49 67.05 C-25.94 50.95 -25.8 34.9 -25.3 18.8 C-25.25 17.19 -25.2 15.57 -25.16 13.96 C-25.04 10.07 -24.92 6.19 -24.8 2.3 C-16.54 0.18 -8.49 -0.01 0 0 Z " fill="#65E3CD" transform="translate(212.80078125,131.69921875)"/>
<path d="M0 0 C1.18 0 1.18 0 2.39 0.01 C24.18 0.09 46.1 2.65 66.28 11.43 C68.33 12.29 70.37 12.93 72.5 13.56 C77.15 15.06 81.45 17.2 85.81 19.38 C86.52 19.73 87.23 20.08 87.97 20.44 C90.77 21.86 93.14 23.08 95.38 25.31 C95.38 26.3 95.38 27.29 95.38 28.31 C94.69 28.31 94.01 28.31 93.31 28.31 C76.7 28.29 60.09 28.27 43.48 28.26 C35.45 28.26 27.41 28.25 19.38 28.24 C12.38 28.23 5.37 28.22 -1.63 28.22 C-5.34 28.22 -9.05 28.21 -12.75 28.21 C-16.9 28.2 -21.04 28.2 -25.19 28.2 C-26.41 28.2 -27.62 28.19 -28.88 28.19 C-38.82 27.99 -38.82 27.99 -48.62 29.31 C-50.84 31.69 -50.84 31.69 -51.62 34.31 C-52.62 33.98 -53.6 33.65 -54.62 33.31 C-54.62 24.73 -54.62 16.15 -54.62 7.31 C-51.3 6.53 -47.98 5.74 -44.56 4.94 C-43.04 4.57 -43.04 4.57 -41.5 4.2 C-27.65 1 -14.15 -0.07 0 0 Z M-17.62 1.31 C-17.62 1.64 -17.62 1.97 -17.62 2.31 C-15.97 2.31 -14.32 2.31 -12.62 2.31 C-12.62 1.98 -12.62 1.65 -12.62 1.31 C-14.28 1.31 -15.93 1.31 -17.62 1.31 Z M14.38 1.31 C18.38 2.31 18.38 2.31 18.38 2.31 Z " fill="#93D8DC" transform="translate(241.625,54.6875)"/>
<path d="M0 0 C7.86 1.06 14.73 5.82 21.49 9.7 C22.74 10.41 23.98 11.12 25.23 11.84 C25.85 12.2 26.48 12.56 27.13 12.93 C30.03 14.59 32.93 16.24 35.82 17.89 C49.24 25.55 62.64 33.24 76 41 C76 34.4 76 27.8 76 21 C80.66 24.99 85.09 28.95 89.39 33.28 C90.29 34.17 90.29 34.17 91.2 35.09 C93.15 37.03 95.09 38.98 97.03 40.93 C98.38 42.29 99.74 43.65 101.1 45.01 C104.66 48.57 108.21 52.13 111.76 55.69 C115.39 59.33 119.02 62.97 122.66 66.61 C129.77 73.74 136.89 80.87 144 88 C143.67 88.99 143.34 89.98 143 91 C138.42 93.09 134.03 93.29 129.08 93.27 C128.34 93.27 127.6 93.27 126.84 93.27 C125.29 93.27 123.74 93.27 122.19 93.26 C119.81 93.25 117.43 93.26 115.06 93.27 C113.54 93.27 112.03 93.27 110.52 93.27 C109.81 93.27 109.1 93.27 108.37 93.28 C104.69 93.24 103.15 93.1 100 91 C99.77 89.93 99.55 88.86 99.31 87.75 C96.94 80.96 90.92 78.37 84.75 75.25 C83.17 74.49 81.59 73.74 80 73 C78.67 72.34 77.33 71.67 76 71 C75.97 70.44 75.95 69.88 75.92 69.3 C75.81 66.76 75.69 64.23 75.56 61.69 C75.52 60.81 75.48 59.93 75.44 59.02 C75.4 58.17 75.36 57.32 75.32 56.45 C75.28 55.67 75.24 54.89 75.21 54.08 C75.06 51.81 75.06 51.81 74 49 C72.02 48.29 70.01 47.63 68 47 C66.2 45.97 64.43 44.88 62.69 43.75 C56.32 39.71 49.78 36.03 43.19 32.38 C34.39 27.48 25.63 22.51 16.94 17.44 C15.96 16.87 14.98 16.3 13.97 15.71 C8.59 12.56 3.27 9.33 -2 6 C-1.12 1.12 -1.12 1.12 0 0 Z " fill="#23F4A8" transform="translate(112,265)"/>
<path d="M0 0 C-0.24 1.26 -0.24 1.26 -0.48 2.55 C-2.6 16.63 -0.36 28.77 7.31 40.75 C14.52 50.34 26.31 57.32 38.09 59.36 C40.06 59.62 42.03 59.81 44 60 C45.33 60.18 46.67 60.37 48 60.56 C48.99 60.71 49.98 60.85 51 61 C49.49 64.54 47.42 66.83 44.72 69.55 C43.88 70.39 43.04 71.24 42.17 72.11 C41.29 72.98 40.41 73.85 39.5 74.75 C38.62 75.64 37.74 76.53 36.83 77.44 C35.99 78.28 35.15 79.12 34.28 79.98 C33.51 80.75 32.74 81.53 31.94 82.32 C30 84 30 84 28 84 C28 83.34 28 82.68 28 82 C27.42 81.74 26.83 81.48 26.23 81.21 C23.84 79.92 22.25 78.51 20.33 76.59 C19.66 75.93 19 75.27 18.32 74.59 C17.63 73.9 16.95 73.21 16.25 72.5 C15.55 71.81 14.86 71.12 14.14 70.41 C13.48 69.75 12.82 69.09 12.14 68.41 C11.54 67.8 10.93 67.2 10.31 66.57 C9 65 9 65 9 63 C8.46 62.78 7.91 62.57 7.36 62.34 C4.2 60.54 1.84 58.11 -0.69 55.54 C-1.24 54.98 -1.8 54.43 -2.37 53.85 C-4.21 52.02 -6.03 50.18 -7.86 48.34 C-9.13 47.06 -10.4 45.79 -11.68 44.51 C-15.02 41.16 -18.36 37.8 -21.7 34.44 C-25.11 31.01 -28.52 27.59 -31.93 24.16 C-38.63 17.45 -45.32 10.73 -52 4 C-47.8 -0.49 -45 -1.1 -38.87 -1.32 C-37.64 -1.35 -37.64 -1.35 -36.39 -1.39 C-35.54 -1.41 -34.69 -1.44 -33.82 -1.46 C-32.03 -1.52 -30.23 -1.57 -28.44 -1.61 C-25.71 -1.69 -22.98 -1.78 -20.24 -1.87 C-18.5 -1.92 -16.76 -1.97 -15.01 -2.01 C-14.2 -2.04 -13.39 -2.07 -12.55 -2.1 C-7.93 -2.2 -4.35 -1.78 0 0 Z " fill="#23F4A8" transform="translate(342,298)"/>
<path d="M0 0 C7.74 4.28 11.67 11.15 14.39 19.32 C15.16 29.08 14.83 36.75 8.63 44.54 C2.59 51.11 -2.7 53.39 -11.54 53.76 C-20.24 53.5 -26.54 50.2 -32.87 44.32 C-35.65 41.12 -37.81 37.53 -38.61 33.32 C-37.88 31.12 -37.88 31.12 -36.61 29.32 C-35.62 28.99 -34.63 28.66 -33.61 28.32 C-34.98 25.16 -35.59 24.33 -38.61 22.32 C-37.49 14.01 -34.22 8.94 -28.36 3.07 C-18.73 -3.05 -10.51 -4.6 0 0 Z " fill="#36DAF1" transform="translate(400.60546875,284.67578125)"/>
<path d="M0 0 C3.85 0.58 6.59 1.71 9.93 3.7 C10.88 4.27 11.83 4.83 12.81 5.41 C13.82 6.02 14.83 6.62 15.88 7.25 C18.03 8.52 20.18 9.8 22.33 11.07 C23.98 12.05 23.98 12.05 25.67 13.04 C30.93 16.13 36.24 19.13 41.56 22.12 C42.51 22.66 43.45 23.19 44.42 23.74 C45.32 24.24 46.21 24.74 47.13 25.26 C47.96 25.73 48.8 26.2 49.66 26.69 C51.14 27.52 52.63 28.34 54.13 29.15 C57.31 30.88 58.95 31.93 61 35 C61.23 36.99 61.23 36.99 61.2 39.23 C61.19 40.03 61.18 40.84 61.18 41.66 C61.16 42.5 61.14 43.33 61.12 44.19 C61.12 45.03 61.11 45.88 61.1 46.75 C61.07 48.83 61.04 50.92 61 53 C56.47 51.35 52.38 49.1 48.19 46.75 C47.42 46.32 46.65 45.89 45.85 45.45 C3.88 21.88 3.88 21.88 0 18 C-0.09 16.66 -0.11 15.31 -0.1 13.96 C-0.09 13.16 -0.09 12.35 -0.09 11.51 C-0.08 10.66 -0.07 9.81 -0.06 8.94 C-0.06 8.08 -0.05 7.23 -0.05 6.35 C-0.04 4.23 -0.02 2.12 0 0 Z " fill="#FBFDFD" transform="translate(127,282)"/>
<path d="M0 0 C0.66 0.33 1.32 0.66 2 1 C2 15.52 2 30.04 2 45 C0.02 43.68 -1.96 42.36 -4 41 C-7.1 40.52 -7.1 40.52 -10.32 40.75 C-12.08 40.8 -12.08 40.8 -13.88 40.84 C-15.1 40.9 -16.31 40.95 -17.56 41 C-19.98 41.1 -22.4 41.19 -24.82 41.25 C-25.88 41.3 -26.95 41.34 -28.05 41.39 C-31.78 40.9 -33.4 39.67 -36 37 C-36 33.38 -35.38 32.96 -33 30.38 C-32.36 29.67 -31.72 28.97 -31.06 28.25 C-30.38 27.5 -29.7 26.76 -29 26 C-28.35 25.25 -27.7 24.5 -27.04 23.72 C-19.06 14.48 -9.69 7.34 0 0 Z " fill="#77DBD4" transform="translate(125,92)"/>
<path d="M0 0 C7.86 1.06 14.73 5.82 21.49 9.7 C22.74 10.41 23.98 11.12 25.23 11.84 C25.85 12.2 26.48 12.56 27.13 12.93 C30.03 14.59 32.93 16.24 35.82 17.89 C39.33 19.89 42.83 21.89 46.33 23.9 C46.94 24.25 47.54 24.59 48.17 24.95 C49.38 25.64 50.59 26.34 51.8 27.03 C55.54 29.17 59.29 31.29 63.04 33.41 C64.77 34.4 66.51 35.39 68.25 36.38 C69.05 36.82 69.85 37.27 70.67 37.73 C72.48 38.76 74.25 39.87 76 41 C76 41.66 76 42.32 76 43 C76.71 43.26 77.41 43.52 78.14 43.79 C83.37 46 88.13 49.09 93 52 C93.83 52.47 94.67 52.94 95.52 53.43 C96.59 54.05 96.59 54.05 97.69 54.69 C98.62 55.22 98.62 55.22 99.57 55.76 C101.44 57.38 101.72 58.58 102 61 C101.5 61.99 101.5 61.99 101 63 C94.5 63.66 91.11 61.73 85.81 58.12 C84.42 57.21 83.03 56.3 81.64 55.38 C80.74 54.77 80.74 54.77 79.81 54.15 C77.93 52.96 76.01 51.96 74 51 C74 50.34 74 49.68 74 49 C73.12 48.74 72.24 48.47 71.33 48.2 C68.06 47.02 65.59 45.64 62.69 43.75 C56.32 39.71 49.78 36.03 43.19 32.38 C34.39 27.48 25.63 22.51 16.94 17.44 C15.96 16.87 14.98 16.3 13.97 15.71 C8.59 12.56 3.27 9.33 -2 6 C-1.12 1.12 -1.12 1.12 0 0 Z " fill="#00FA9B" transform="translate(112,265)"/>
<path d="M0 0 C4.17 0.6 7.14 2 10.77 4.11 C11.89 4.75 13.02 5.4 14.18 6.07 C15.39 6.77 16.6 7.48 17.81 8.19 C19.06 8.91 20.3 9.63 21.55 10.35 C24.11 11.83 26.66 13.31 29.21 14.8 C32.81 16.9 36.43 18.97 40.04 21.04 C42.2 22.27 44.35 23.51 46.5 24.75 C47.5 25.32 48.5 25.89 49.53 26.48 C50.46 27.02 51.39 27.56 52.34 28.11 C53.15 28.57 53.96 29.04 54.79 29.51 C57.21 31.14 59.1 32.79 61 35 C61.39 38.23 61.39 38.23 61.25 41.75 C61.21 42.92 61.18 44.09 61.14 45.3 C61.09 46.19 61.05 47.08 61 48 C56.89 46.74 53.35 45.22 49.64 43.05 C48.62 42.46 47.6 41.86 46.55 41.25 C45.46 40.61 44.37 39.97 43.25 39.31 C41.52 38.31 39.8 37.3 38.07 36.3 C36.27 35.25 34.47 34.19 32.67 33.14 C29 30.99 25.31 28.87 21.61 26.74 C21.02 26.4 20.42 26.06 19.81 25.7 C16.94 24.05 14.06 22.4 11.19 20.75 C10.16 20.16 9.13 19.56 8.07 18.95 C6.7 18.17 6.7 18.17 5.31 17.37 C3.51 16.3 1.74 15.16 0 14 C-0.29 10.74 -0.29 10.74 -0.19 6.88 C-0.16 5.59 -0.13 4.31 -0.11 2.99 C-0.07 2 -0.04 1.02 0 0 Z " fill="#FBFDFD" transform="translate(127,311)"/>
<path d="M0 0 C2.81 0.61 5.08 1.45 7.59 2.86 C8.28 3.25 8.97 3.64 9.68 4.03 C10.43 4.46 11.17 4.88 11.94 5.31 C12.72 5.75 13.51 6.2 14.32 6.65 C16 7.6 17.69 8.55 19.37 9.51 C22.01 11.01 24.65 12.49 27.29 13.98 C35.68 18.72 44.01 23.53 52.19 28.62 C52.85 29.04 53.52 29.45 54.2 29.88 C56.69 31.45 58.91 32.91 61 35 C61 36.32 61 37.64 61 39 C49.33 40.86 42.29 36.56 32.67 30.63 C29.71 28.82 26.72 27.09 23.72 25.36 C13.06 19.21 13.06 19.21 8.45 16.46 C6.98 15.58 5.49 14.72 3.98 13.9 C2.32 12.95 2.32 12.95 0 11 C-0.59 8.2 -0.59 8.2 -0.38 5.25 C-0.32 4.27 -0.27 3.28 -0.21 2.27 C-0.14 1.52 -0.07 0.77 0 0 Z " fill="#FBFDFD" transform="translate(127,335)"/>
<path d="M0 0 C4.02 -0.06 8.04 -0.09 12.06 -0.12 C13.76 -0.15 13.76 -0.15 15.5 -0.18 C21.4 -0.21 26.44 -0.05 32 2 C32 5 32 5 30.71 6.54 C30.13 7.09 29.54 7.63 28.94 8.19 C25.69 11.21 22.82 14.47 19.91 17.82 C16.74 21.43 13.47 24.93 10.19 28.44 C9.52 29.16 8.85 29.87 8.17 30.62 C7.53 31.3 6.89 31.98 6.23 32.68 C5.37 33.6 5.37 33.6 4.49 34.54 C3 36 3 36 1 37 C-0.56 33.88 -0.12 30.57 -0.1 27.15 C-0.1 26.37 -0.09 25.6 -0.09 24.8 C-0.09 22.33 -0.08 19.85 -0.06 17.38 C-0.06 15.7 -0.05 14.02 -0.05 12.34 C-0.04 8.23 -0.02 4.11 0 0 Z " fill="#4FE8C1" transform="translate(188,185)"/>
<path d="M0 0 C4.53 1.21 8.48 1.57 13.21 1.47 C14.2 1.8 15.19 2.13 16.21 2.47 C14.69 6.01 12.63 8.3 9.92 11.02 C9.08 11.86 8.24 12.71 7.37 13.58 C6.49 14.45 5.61 15.32 4.71 16.22 C3.82 17.11 2.94 18 2.04 18.91 C1.2 19.75 0.35 20.59 -0.51 21.46 C-1.29 22.23 -2.06 23 -2.86 23.79 C-4.79 25.47 -4.79 25.47 -6.79 25.47 C-6.79 24.81 -6.79 24.15 -6.79 23.47 C-7.38 23.21 -7.97 22.95 -8.58 22.67 C-10.9 21.41 -12.4 20.09 -14.25 18.21 C-14.87 17.59 -15.49 16.96 -16.12 16.32 C-16.76 15.67 -17.39 15.02 -18.04 14.35 C-18.69 13.69 -19.34 13.03 -20.01 12.35 C-21.61 10.73 -23.21 9.1 -24.79 7.47 C-22.23 2.83 -20.44 0.96 -15.23 -0.59 C-14.1 -0.9 -12.96 -1.21 -11.79 -1.53 C-8.21 -3.32 -3.74 -1.05 0 0 Z " fill="#02F699" transform="translate(376.794921875,356.529296875)"/>
<path d="M0 0 C0.33 0 0.66 0 1 0 C1 54.45 1 108.9 1 165 C0.67 165 0.34 165 0 165 C0 110.55 0 56.1 0 0 Z " fill="#FBFDFD" transform="translate(1100,210)"/>
<path d="M0 0 C0.33 0 0.66 0 1 0 C1 54.45 1 108.9 1 165 C0.67 165 0.34 165 0 165 C0 110.55 0 56.1 0 0 Z " fill="#FBFDFD" transform="translate(887,210)"/>
<path d="M0 0 C0.33 0 0.66 0 1 0 C1 54.45 1 108.9 1 165 C0.67 165 0.34 165 0 165 C0 110.55 0 56.1 0 0 Z " fill="#FBFDFD" transform="translate(481,210)"/>
<path d="M0 0 C0.33 0 0.66 0 1 0 C1 31.68 1 63.36 1 96 C0.67 96 0.34 96 0 96 C0 64.32 0 32.64 0 0 Z " fill="#FBFDFD" transform="translate(1045,210)"/>
<path d="M0 0 C0 0.33 0 0.66 0 1 C-3.91 1.69 -7.54 2.06 -11.52 1.92 C-12.29 1.9 -13.07 1.87 -13.87 1.84 C-15.47 1.78 -17.08 1.7 -18.68 1.61 C-20.89 1.55 -22.84 1.53 -25 2 C-26.95 4.36 -26.95 4.36 -28 7 C-30.69 7.81 -30.69 7.81 -33 8 C-32.12 1.12 -32.12 1.12 -31 0 C-27.14 -0.39 -23.25 -0.47 -19.38 -0.62 C-18.29 -0.68 -17.21 -0.73 -16.1 -0.78 C-10.58 -1.01 -5.43 -1.04 0 0 Z " fill="#24F4A9" transform="translate(320,289)"/>
<path d="M0 0 C23.43 0 46.86 0 71 0 C71 0.33 71 0.66 71 1 C47.57 1 24.14 1 0 1 C0 0.67 0 0.34 0 0 Z " fill="#FBFDFD" transform="translate(1139,343)"/>
<path d="M0 0 C21.78 0 43.56 0 66 0 C66 0.33 66 0.66 66 1 C44.22 1 22.44 1 0 1 C0 0.67 0 0.34 0 0 Z " fill="#FBFDFD" transform="translate(810,343)"/>
<path d="M0 0 C21.45 0 42.9 0 65 0 C65 0.33 65 0.66 65 1 C43.55 1 22.1 1 0 1 C0 0.67 0 0.34 0 0 Z " fill="#FBFDFD" transform="translate(1139,275)"/>
<path d="M0 0 C1.77 -0.03 3.54 -0.05 5.31 -0.06 C6.3 -0.07 7.28 -0.09 8.3 -0.1 C11 0 11 0 14 1 C13.34 3.31 12.68 5.62 12 8 C10.12 7.25 10.12 7.25 8 6 C7.71 5.32 7.42 4.64 7.12 3.94 C6.57 2.98 6.57 2.98 6 2 C2.94 1.18 2.94 1.18 0 1 C0 0.67 0 0.34 0 0 Z " fill="#24F4A9" transform="translate(331,289)"/>
<path d="M0 0 C1.18 0.93 2.34 1.87 3.5 2.81 C4.15 3.33 4.8 3.86 5.47 4.39 C7 6 7 6 7 9 C5.02 9 3.04 9 1 9 C-0.48 6.04 -0.06 3.26 0 0 Z " fill="#30F0B1" transform="translate(188,286)"/>
<path d="M0 0 C3.47 1.98 3.47 1.98 7 4 C6.67 4.99 6.34 5.98 6 7 C4.35 7 2.7 7 1 7 C0.67 4.69 0.34 2.38 0 0 Z " fill="#24F4A9" transform="translate(188,350)"/>
<path d="M0 0 C-1.75 3.88 -1.75 3.88 -4 5 C-5.65 3.35 -7.3 1.7 -9 0 C-5.93 -1.53 -3.3 -0.55 0 0 Z " fill="#26E9A4" transform="translate(393,359)"/>
<path d="M0 0 C0.33 0 0.66 0 1 0 C1 3.63 1 7.26 1 11 C0.67 11 0.34 11 0 11 C0 7.37 0 3.74 0 0 Z " fill="#3AEDB7" transform="translate(46,238)"/>
</svg>
